<?xml version="1.0" encoding="UTF-8" standalone="no"?>
<svg
   width="299.99954"
   height="299.99988"
   viewBox="0 0 299.99954 299.99988"
   version="1.1"
   id="svg1"
   inkscape:version="1.3.2 (091e20e, 2023-11-25, custom)"
   sodipodi:docname="logo.svg"
   xml:space="preserve"
   inkscape:export-filename="logo.png"
   inkscape:export-xdpi="96"
   inkscape:export-ydpi="96"
   xmlns:inkscape="http://www.inkscape.org/namespaces/inkscape"
   xmlns:sodipodi="http://sodipodi.sourceforge.net/DTD/sodipodi-0.dtd"
   xmlns="http://www.w3.org/2000/svg"
   xmlns:svg="http://www.w3.org/2000/svg"><sodipodi:namedview
     id="namedview1"
     pagecolor="#ffffff"
     bordercolor="#000000"
     borderopacity="0.25"
     inkscape:showpageshadow="2"
     inkscape:pageopacity="0.0"
     inkscape:pagecheckerboard="0"
     inkscape:deskcolor="#d1d1d1"
     inkscape:document-units="px"
     showborder="false"
     inkscape:zoom="0.51213161"
     inkscape:cx="136.68362"
     inkscape:cy="374.90363"
     inkscape:window-width="1280"
     inkscape:window-height="730"
     inkscape:window-x="-6"
     inkscape:window-y="-6"
     inkscape:window-maximized="1"
     inkscape:current-layer="layer1"
     inkscape:export-bgcolor="#ffffff00" /><defs
     id="defs1" /><g
     inkscape:label="Layer 1"
     inkscape:groupmode="layer"
     id="layer1"
     transform="translate(-150.00023,-150.00007)"><g
       id="g24"
       inkscape:label="LOGO"
       transform="translate(-199.99998,-57.295937)"><path
         id="rect11"
         style="fill:#111111;fill-opacity:1;stroke-width:1.02008"
         d="M 366.22873 307.29601 C 357.23777 307.29601 350.00021 314.53356 350.00021 323.52452 L 350.00021 491.06749 C 350.00021 500.05845 357.23777 507.29601 366.22873 507.29601 L 533.77169 507.29601 C 542.76265 507.29601 550.00021 500.05845 550.00021 491.06749 L 550.00021 407.29601 L 466.22873 407.29601 C 457.23777 407.29601 450.00021 400.05649 450.00021 391.06554 L 450.00021 307.29601 L 366.22873 307.29601 z " /><path
         id="rect20"
         style="fill:#8093f1;fill-opacity:1;stroke-width:1.02008"
         d="M 466.22873 207.29601 C 457.23777 207.29601 450.00021 214.53356 450.00021 223.52452 L 450.00021 307.29405 L 533.77169 307.29405 C 542.76265 307.29405 550.00021 314.53357 550.00021 323.52452 L 550.00021 407.29601 L 633.76974 407.29601 C 642.7607 407.29601 650.00021 400.05845 650.00021 391.06749 L 650.00021 223.52452 C 650.00021 214.53356 642.7607 207.29601 633.76974 207.29601 L 466.22873 207.29601 z " /></g></g></svg>
